<svg width="19" height="19" viewBox="0 0 19 19" fill="none" xmlns="http://www.w3.org/2000/svg">
<path fill-rule="evenodd" clip-rule="evenodd" d="M18 9.49997L17.9987 9.49998L17.9949 9.50004L17.9885 9.5002L17.9796 9.50051L17.9682 9.50103L17.9542 9.5018L17.9377 9.50288L17.9187 9.50431L17.8972 9.50614L17.8732 9.50843L17.8468 9.51121L17.8179 9.51455L17.7866 9.51849L17.7529 9.52306L17.7169 9.52833L17.6784 9.53434L17.6377 9.54113L17.5946 9.54874L17.5493 9.55723L17.5018 9.56662L17.452 9.57697L17.4001 9.58831L17.346 9.60068L17.2899 9.61413L17.2317 9.62869L17.1714 9.64439L17.1092 9.66127L17.0451 9.67937L16.9791 9.69871L16.9112 9.71934L16.8415 9.74127L16.7701 9.76455L16.697 9.78919L16.6222 9.81522L16.5458 9.84267L16.4679 9.87156L16.3885 9.90191L16.3076 9.93374L16.2254 9.96708L16.1418 10.0019L16.0569 10.0383L15.9708 10.0763L15.8835 10.1157L15.7952 10.1568L15.7057 10.1995L15.6153 10.2437L15.524 10.2895L15.4317 10.337L15.3387 10.386L15.2449 10.4366L15.1504 10.4889L15.0553 10.5427L14.9596 10.5981L14.8634 10.6552L14.7667 10.7138L14.6696 10.7739L14.5723 10.8357L14.4746 10.899L14.3767 10.9638L14.2787 11.0301L14.1806 11.098L14.0824 11.1673L13.9843 11.2381L13.8863 11.3104L13.7884 11.384L13.6907 11.459L13.5933 11.5354L13.4961 11.6132L13.3994 11.6922L13.3031 11.7725L13.2072 11.8541L13.1119 11.9369L13.0172 12.0208L12.9231 12.1059L12.8296 12.192L12.737 12.2792L12.6451 12.3675L12.554 12.4566L12.4638 12.5468L12.3745 12.6378L12.2862 12.7296L12.1989 12.8222L12.1127 12.9156L12.0275 13.0096L11.9435 13.1043L11.8607 13.1996L11.779 13.2954L11.6986 13.3917L11.6194 13.4884L11.5416 13.5855L11.4651 13.6829L11.3899 13.7806L11.3162 13.8785L11.2438 13.9765L11.1729 14.0746L11.1035 14.1728L11.0355 14.2709L10.969 14.3689L10.9041 14.4668L10.8407 14.5645L10.7788 14.6619L10.7185 14.759L10.6598 14.8557L10.6026 14.9519L10.5471 15.0477L10.4931 15.1429L10.4407 15.2374L10.39 15.3313L10.3408 15.4244L10.2933 15.5167L10.2473 15.6081L10.2029 15.6986L10.1602 15.7881L10.119 15.8765L10.0794 15.9639L10.0413 16.0501L10.0048 16.1351L9.96981 16.2188L9.93636 16.3011L9.9044 16.3821L9.87394 16.4616L9.84493 16.5397L9.81737 16.6162L9.79123 16.6911L9.76648 16.7643L9.7431 16.8359L9.72105 16.9057L9.70033 16.9737L9.68088 17.0399L9.66268 17.1042L9.6457 17.1665L9.62991 17.2269L9.61526 17.2853L9.60173 17.3416L9.58927 17.3959L9.57785 17.448L9.56742 17.4979L9.55796 17.5456L9.5494 17.5911L9.54172 17.6343L9.53487 17.6753L9.5288 17.7139L9.52347 17.7502L9.51884 17.784L9.51486 17.8155L9.51147 17.8446L9.50865 17.8712L9.50632 17.8954L9.50445 17.9171L9.50299 17.9363L9.50189 17.953L9.5011 17.9672L9.50056 17.9788L9.50023 17.9879L9.50006 17.9945L9.5 17.9985L9.49998 18L9.49998 17.9989L9.49992 17.9953L9.49977 17.9891L9.49947 17.9804L9.49897 17.9692L9.49822 17.9554L9.49717 17.9391L9.49577 17.9203L9.49397 17.899L9.49173 17.8752L9.48898 17.849L9.48569 17.8203L9.4818 17.7892L9.47728 17.7557L9.47206 17.7198L9.46612 17.6816L9.45939 17.641L9.45185 17.5982L9.44343 17.553L9.43411 17.5056L9.42384 17.4561L9.41258 17.4043L9.40029 17.3504L9.38693 17.2944L9.37247 17.2364L9.35686 17.1763L9.34007 17.1143L9.32207 17.0503L9.30282 16.9844L9.2823 16.9167L9.26047 16.8471L9.23731 16.7759L9.21278 16.7029L9.18686 16.6282L9.15952 16.552L9.13075 16.4742L9.10052 16.3949L9.0688 16.3141L9.03559 16.232L9.00086 16.1485L8.96459 16.0637L8.92678 15.9777L8.88741 15.8905L8.84647 15.8022L8.80394 15.7129L8.75983 15.6226L8.71413 15.5313L8.66683 15.4391L8.61792 15.3461L8.56741 15.2524L8.5153 15.158L8.46159 15.0629L8.40629 14.9672L8.34939 14.871L8.29091 14.7744L8.23086 14.6774L8.16924 14.58L8.10608 14.4824L8.04138 14.3845L7.97515 14.2865L7.90742 14.1884L7.83821 14.0903L7.76753 13.9921L7.69541 13.8941L7.62187 13.7962L7.54694 13.6985L7.47065 13.601L7.39301 13.5039L7.31407 13.4071L7.23385 13.3107L7.15239 13.2148L7.06973 13.1195L6.98589 13.0247L6.90091 12.9305L6.81484 12.837L6.72771 12.7443L6.63956 12.6523L6.55045 12.5612L6.4604 12.4709L6.36947 12.3816L6.2777 12.2932L6.18514 12.2058L6.09184 12.1195L5.99784 12.0343L5.9032 11.9502L5.80797 11.8672L5.7122 11.7855L5.61595 11.7049L5.51926 11.6257L5.42219 11.5477L5.3248 11.4711L5.22715 11.3959L5.12929 11.322L5.03127 11.2495L4.93316 11.1785L4.83501 11.1089L4.73689 11.0409L4.63884 10.9743L4.54094 10.9092L4.44325 10.8457L4.34581 10.7837L4.2487 10.7232L4.15196 10.6644L4.05567 10.6071L3.95989 10.5514L3.86467 10.4973L3.77007 10.4448L3.67616 10.394L3.58299 10.3447L3.49063 10.297L3.39914 10.2509L3.30857 10.2064L3.21898 10.1635L3.13044 10.1222L3.04299 10.0824L2.9567 10.0443L2.87163 10.0076L2.78783 9.97252L2.70535 9.93895L2.62426 9.90688L2.54461 9.87629L2.46644 9.84717L2.38981 9.8195L2.31478 9.79324L2.2414 9.76838L2.1697 9.74489L2.09975 9.72275L2.0316 9.70191L1.96527 9.68237L1.90083 9.66407L1.83832 9.647L1.77777 9.63111L1.71924 9.61637L1.66275 9.60275L1.60836 9.59021L1.55609 9.57871L1.50598 9.5682L1.45808 9.55866L1.4124 9.55003L1.36899 9.54228L1.32787 9.53537L1.28907 9.52924L1.25261 9.52386L1.21854 9.51917L1.18686 9.51514L1.15759 9.51171L1.13077 9.50883L1.10641 9.50647L1.08452 9.50457L1.06512 9.50308L1.04823 9.50195L1.03385 9.50113L1.022 9.50058L1.01269 9.50024L1.00591 9.50005L1.00168 9.49998L1 9.49997L1.00087 9.49996L1.00429 9.49991L1.01025 9.49977L1.01876 9.49949L1.0298 9.499L1.04338 9.49828L1.05947 9.49725L1.07807 9.49588L1.09917 9.49412L1.12274 9.49191L1.14878 9.4892L1.17727 9.48596L1.20818 9.48212L1.2415 9.47765L1.2772 9.47249L1.31525 9.4666L1.35564 9.45994L1.39832 9.45246L1.44328 9.44412L1.49048 9.43487L1.53989 9.42468L1.59148 9.4135L1.6452 9.40129L1.70102 9.38802L1.75891 9.37364L1.81882 9.35813L1.88071 9.34143L1.94454 9.32353L2.01027 9.30439L2.07785 9.28397L2.14723 9.26224L2.21837 9.23918L2.29123 9.21476L2.36574 9.18896L2.44186 9.16173L2.51954 9.13308L2.59873 9.10296L2.67937 9.07136L2.76141 9.03827L2.8448 9.00366L2.92947 8.96752L3.01538 8.92983L3.10246 8.89058L3.19066 8.84977L3.27992 8.80737L3.37019 8.76339L3.46139 8.71781L3.55348 8.67063L3.6464 8.62185L3.74008 8.57147L3.83447 8.51949L3.92949 8.46591L4.02511 8.41073L4.12124 8.35396L4.21784 8.29561L4.31484 8.23568L4.41218 8.17419L4.5098 8.11114L4.60764 8.04656L4.70565 7.98046L4.80375 7.91285L4.9019 7.84375L5.00002 7.77319L5.09808 7.70118L5.196 7.62776L5.29373 7.55294L5.3912 7.47675L5.48838 7.39922L5.58519 7.32038L5.68159 7.24026L5.77753 7.1589L5.87293 7.07633L5.96777 6.99258L6.06197 6.90769L6.1555 6.82171L6.2483 6.73466L6.34033 6.6466L6.43153 6.55755L6.52186 6.46758L6.61128 6.37672L6.69974 6.28501L6.7872 6.19251L6.87361 6.09927L6.95894 6.00533L7.04315 5.91074L7.12619 5.81555L7.20804 5.71982L7.28866 5.6236L7.36801 5.52695L7.44606 5.42991L7.52279 5.33254L7.59815 5.23491L7.67214 5.13706L7.74471 5.03905L7.81585 4.94094L7.88554 4.8428L7.95374 4.74467L8.02044 4.64662L8.08563 4.5487L8.14929 4.45099L8.2114 4.35353L8.27196 4.25638L8.33094 4.15962L8.38834 4.06329L8.44415 3.96746L8.49837 3.8722L8.55099 3.77755L8.60201 3.68358L8.65142 3.59035L8.69923 3.49793L8.74545 3.40636L8.79007 3.31571L8.83309 3.22604L8.87454 3.13741L8.91441 3.04988L8.95272 2.9635L8.98947 2.87832L9.02469 2.79442L9.05838 2.71184L9.09058 2.63063L9.12128 2.55086L9.15051 2.47257L9.17831 2.39582L9.20467 2.32066L9.22964 2.24714L9.25324 2.17531L9.27549 2.10522L9.29643 2.03692L9.31608 1.97045L9.33447 1.90586L9.35164 1.84319L9.36762 1.78248L9.38245 1.72378L9.39616 1.66714L9.40878 1.61257L9.42037 1.56013L9.43095 1.50985L9.44057 1.46177L9.44926 1.41592L9.45708 1.37232L9.46406 1.33102L9.47025 1.29203L9.47569 1.25539L9.48043 1.22112L9.48452 1.18925L9.48799 1.15979L9.49091 1.13278L9.49331 1.10822L9.49525 1.08613L9.49677 1.06654L9.49792 1.04944L9.49876 1.03487L9.49934 1.02281L9.4997 1.01329L9.49989 1.00632L9.49997 1.00188L9.49998 1L9.49999 1.00067L9.50003 1.00388L9.50016 1.00964L9.50044 1.01795L9.5009 1.02879L9.50161 1.04216L9.50261 1.05806L9.50395 1.07646L9.50568 1.09736L9.50785 1.12074L9.51052 1.14658L9.51372 1.17487L9.5175 1.20559L9.52192 1.23872L9.52703 1.27423L9.53285 1.3121L9.53945 1.3523L9.54686 1.3948L9.55513 1.43958L9.56431 1.4866L9.57442 1.53584L9.58552 1.58725L9.59765 1.6408L9.61083 1.69646L9.62512 1.75418L9.64055 1.81393L9.65714 1.87567L9.67495 1.93935L9.69399 2.00493L9.71431 2.07236L9.73593 2.1416L9.75888 2.21261L9.78319 2.28533L9.80889 2.35971L9.836 2.43571L9.86454 2.51327L9.89454 2.59234L9.92602 2.67286L9.95899 2.75479L9.99348 2.83807L10.0295 2.92265L10.0671 3.00846L10.1062 3.09545L10.1469 3.18356L10.1891 3.27274L10.233 3.36293L10.2785 3.45406L10.3255 3.54609L10.3742 3.63894L10.4244 3.73256L10.4763 3.82689L10.5297 3.92187L10.5848 4.01744L10.6414 4.11354L10.6996 4.2101L10.7594 4.30707L10.8208 4.40439L10.8837 4.50199L10.9482 4.59981L11.0142 4.69781L11.0817 4.79591L11.1506 4.89405L11.2211 4.99218L11.293 5.09024L11.3663 5.18818L11.441 5.28592L11.5171 5.38342L11.5945 5.48063L11.6732 5.57747L11.7533 5.67391L11.8345 5.76988L11.917 5.86533L12.0007 5.96021L12.0855 6.05447L12.1714 6.14805L12.2583 6.24091L12.3463 6.333L12.4353 6.42427L12.5252 6.51468L12.616 6.60417L12.7076 6.69271L12.8 6.78025L12.8932 6.86674L12.9871 6.95216L13.0816 7.03646L13.1768 7.1196L13.2725 7.20154L13.3687 7.28226L13.4653 7.36171L13.5623 7.43987L13.6596 7.5167L13.7572 7.59218L13.8551 7.66628L13.9531 7.73897L14.0512 7.81022L14.1493 7.88002L14.2475 7.94834L14.3455 8.01517L14.4434 8.08048L14.5412 8.14426L14.6387 8.20649L14.7358 8.26717L14.8326 8.32628L14.929 8.3838L15.0249 8.43974L15.1202 8.49409L15.2149 8.54684L15.3089 8.59798L15.4022 8.64753L15.4947 8.69547L15.5863 8.74181L15.677 8.78655L15.7668 8.82971L15.8555 8.87128L15.9431 8.91127L16.0296 8.9497L16.1149 8.98658L16.1989 9.02192L16.2816 9.05574L16.3629 9.08805L16.4428 9.11887L16.5212 9.14822L16.5981 9.17613L16.6733 9.20261L16.747 9.22769L16.819 9.25139L16.8892 9.27375L16.9576 9.29479L17.0243 9.31454L17.089 9.33303L17.1518 9.3503L17.2127 9.36637L17.2715 9.38129L17.3284 9.39509L17.3831 9.4078L17.4357 9.41947L17.4862 9.43012L17.5344 9.43982L17.5804 9.44859L17.6242 9.45647L17.6657 9.46352L17.7049 9.46977L17.7417 9.47527L17.7762 9.48006L17.8082 9.4842L17.8379 9.48772L17.8651 9.49068L17.8898 9.49312L17.9121 9.49509L17.9319 9.49664L17.9492 9.49783L17.964 9.49869L17.9762 9.49928L17.986 9.49966L17.9931 9.49986L17.9978 9.49995L17.9999 9.49997L18 9.49997Z" fill="#802AAF" stroke="white"/>
</svg>
