<svg width="16" height="16" viewBox="0 0 22 22" fill="none" xmlns="http://www.w3.org/2000/svg">
<path d="M15.0961 0.53952L21.4431 6.88552C21.5085 6.95081 21.5545 7.03295 21.5761 7.12282C21.5976 7.21269 21.5938 7.30678 21.5651 7.39462C21.5364 7.48247 21.484 7.56064 21.4135 7.62047C21.3431 7.68029 21.2574 7.71943 21.1661 7.73352L19.6921 7.96352L14.0361 2.30752L14.2481 0.82252C14.2613 0.730691 14.2997 0.644339 14.3592 0.573123C14.4187 0.501908 14.4967 0.448637 14.5847 0.419269C14.6727 0.389901 14.7672 0.385595 14.8575 0.406832C14.9478 0.428069 15.0304 0.474011 15.0961 0.53952ZM3.0951 19.6495C6.8171 16.3185 11.0901 15.3215 15.7381 14.1295L16.1841 10.1115L11.8871 5.81452L7.8691 6.26052C6.6771 10.9085 5.6801 15.1805 2.3491 18.9035L0.954102 17.5095C3.7821 14.2095 4.8441 10.5565 6.2571 4.42852L12.6211 3.72152L18.2781 9.37852L17.5711 15.7425C11.4431 17.1565 7.7891 18.2175 4.4901 21.0455L3.0951 19.6495ZM8.3791 13.6195C8.18808 13.435 8.03572 13.2143 7.9309 12.9703C7.82608 12.7263 7.77091 12.4639 7.7686 12.1983C7.76629 11.9328 7.8169 11.6694 7.91746 11.4236C8.01802 11.1778 8.16653 10.9545 8.35431 10.7667C8.5421 10.5789 8.7654 10.4304 9.01119 10.3299C9.25699 10.2293 9.52035 10.1787 9.7859 10.181C10.0515 10.1833 10.3139 10.2385 10.5579 10.3433C10.8019 10.4481 11.0226 10.6005 11.2071 10.7915C11.5664 11.1696 11.7638 11.673 11.7572 12.1946C11.7506 12.7161 11.5406 13.2144 11.1719 13.5833C10.8031 13.9522 10.3049 14.1624 9.78335 14.1692C9.26182 14.1759 8.75829 13.9787 8.3801 13.6195H8.3791Z" fill="#802AAF"/>
</svg>
