<svg width="17" height="15" viewBox="0 0 17 15" fill="none" xmlns="http://www.w3.org/2000/svg">
<path d="M8.05845 5.492C8.05845 7.556 7.69845 9.368 6.97845 10.928C6.28245 12.488 5.20245 13.58 3.73845 14.204C3.18645 13.652 2.69445 13.208 2.26245 12.872C1.85445 12.512 1.39845 12.2 0.894453 11.936C2.11845 11.48 3.00645 10.94 3.55845 10.316C4.13445 9.692 4.50645 8.96 4.67445 8.12H1.39845V0.919999H8.02245L8.05845 5.492ZM16.3385 5.492C16.3385 7.556 15.9785 9.368 15.2585 10.928C14.5625 12.488 13.4825 13.58 12.0185 14.204C11.4665 13.652 10.9745 13.208 10.5425 12.872C10.1345 12.512 9.67845 12.2 9.17445 11.936C10.3985 11.48 11.2865 10.94 11.8385 10.316C12.4145 9.692 12.7865 8.96 12.9545 8.12H9.31845V0.919999H16.3025L16.3385 5.492Z" fill="#802AAF"/>
</svg>
