<svg width="44" height="40" viewBox="0 0 44 40" fill="none" xmlns="http://www.w3.org/2000/svg">
<path d="M28.2 4C27.9319 5.31985 27.9319 6.68015 28.2 8H5.022L20.122 21.324L30.22 12.284C31.072 13.338 32.136 14.216 33.346 14.854L20.144 26.676L4 12.432V36H36V15.8C37.3199 16.0681 38.6801 16.0681 40 15.8V38C40 38.5304 39.7893 39.0391 39.4142 39.4142C39.0391 39.7893 38.5304 40 38 40H2C1.46957 40 0.960859 39.7893 0.585786 39.4142C0.210714 39.0391 0 38.5304 0 38V6C0 5.46957 0.210714 4.96086 0.585786 4.58579C0.960859 4.21071 1.46957 4 2 4H28.2ZM38 12C37.2121 12 36.4319 11.8448 35.7039 11.5433C34.9759 11.2417 34.3145 10.7998 33.7574 10.2426C33.2002 9.68549 32.7583 9.02405 32.4567 8.2961C32.1552 7.56815 32 6.78793 32 6C32 5.21207 32.1552 4.43185 32.4567 3.7039C32.7583 2.97595 33.2002 2.31451 33.7574 1.75736C34.3145 1.20021 34.9759 0.758251 35.7039 0.456723C36.4319 0.155195 37.2121 -1.17411e-08 38 0C39.5913 2.37122e-08 41.1174 0.632141 42.2426 1.75736C43.3679 2.88258 44 4.4087 44 6C44 7.5913 43.3679 9.11742 42.2426 10.2426C41.1174 11.3679 39.5913 12 38 12Z" fill="white"/>
</svg>
