<svg width="16" height="15" viewBox="0 0 16 15" fill="none" xmlns="http://www.w3.org/2000/svg">
<path d="M8.50991 9.508C8.50991 7.444 8.86991 5.632 9.58991 4.072C10.2859 2.512 11.3659 1.42 12.8299 0.796C13.3819 1.348 13.8739 1.792 14.3059 2.128C14.7139 2.488 15.1699 2.8 15.6739 3.064C14.4499 3.52 13.5619 4.06 13.0099 4.684C12.4339 5.308 12.0619 6.04 11.8939 6.88H15.1699V14.08H8.54591L8.50991 9.508ZM0.229905 9.508C0.229905 7.444 0.589906 5.632 1.30991 4.072C2.00591 2.512 3.08591 1.42 4.54991 0.796C5.10191 1.348 5.59391 1.792 6.02591 2.128C6.43391 2.488 6.88991 2.8 7.39391 3.064C6.16991 3.52 5.28191 4.06 4.72991 4.684C4.15391 5.308 3.78191 6.04 3.61391 6.88H7.24991V14.08H0.265905L0.229905 9.508Z" fill="#802AAF"/>
</svg>
