<svg width="21" height="21" viewBox="0 0 21 21" fill="none" xmlns="http://www.w3.org/2000/svg">
<path d="M16 16.383V14.5L21 17.5L16 20.5V18.41C14.4714 18.1911 13.0249 17.5826 11.7995 16.643C10.5741 15.7034 9.61107 14.4644 9.003 13.045L9 13.04L8.997 13.046C8.30308 14.6647 7.14947 16.0443 5.67909 17.0138C4.20872 17.9833 2.48621 18.5 0.725 18.5H0V16.5H0.725C2.09498 16.5 3.43484 16.0979 4.57852 15.3437C5.7222 14.5895 6.61942 13.5162 7.159 12.257L7.912 10.5L7.159 8.743C6.61942 7.48375 5.7222 6.41052 4.57852 5.6563C3.43484 4.90208 2.09498 4.50004 0.725 4.5H0V2.5H0.725C2.48632 2.50008 4.20891 3.01698 5.6793 3.98663C7.14968 4.95628 8.30323 6.33607 8.997 7.955L9 7.96L9.003 7.954C9.61121 6.5348 10.5743 5.29594 11.7997 4.35654C13.0251 3.41714 14.4715 2.8088 16 2.59V0.5L21 3.5L16 6.5V4.617C14.8669 4.82694 13.8031 5.31339 12.9032 6.03315C12.0032 6.75292 11.2949 7.68374 10.841 8.743L10.088 10.5L10.841 12.257C11.2949 13.3163 12.0032 14.2471 12.9032 14.9668C13.8031 15.6866 14.8669 16.1731 16 16.383Z" fill="#292929"/>
</svg>
